<svg width="152" height="72" viewBox="0 0 48 18" fill="none" xmlns="http://www.w3.org/2000/svg">
  <path d="M5.136,2.446v4.701c0,0,1.65,0,2.539-0.067c0.695-0.122,0.823-0.189,0.95-0.884l0.256-1.018h0.756l-0.128,2.226 l0.067,2.279h-0.762l-0.189-0.891c-0.189-0.633-0.445-0.762-0.95-0.823c-0.633-0.067-2.539-0.067-2.539-0.067v3.928 c0,0.756,0.384,1.08,1.267,1.08h2.663c0.823,0,1.646-0.067,2.157-1.268l0.689-1.523h0.64c-0.067,0.317-0.384,3.106-0.445,3.732 c0,0-2.412-0.061-3.423-0.061H4.098l-2.725,0.061v-0.689l0.884-0.195c0.64-0.128,0.829-0.317,0.829-0.823 c0,0,0.067-1.712,0.067-4.561c0-2.849-0.067-4.561-0.067-4.561c0-0.568-0.189-0.695-0.829-0.823L1.369,2.009V1.299l2.663,0.055 h5.069c1.014,0,2.721-0.183,2.721-0.183s-0.061,1.073-0.128,3.61h-0.695l-0.256-0.891c-0.249-1.141-0.629-1.709-1.327-1.709H6.354 C5.105,1.828,5.136,1.922,5.136,2.446z" fill="#f45800"/>
  <path d="M15.386,2.937h0.762v2.667l2.606-0.128l-0.128,1.208l-2.539-0.195v4.703c0,1.329,0.445,1.841,1.208,1.841 c0.689,0,1.202-0.384,1.393-0.702l0.378,0.445c-0.378,0.884-1.451,1.329-2.471,1.329c-1.262,0-2.287-0.756-2.287-2.215V6.561 h-1.512V5.914C14.046,5.795,15.004,5.037,15.386,2.937z" fill="#f45800"/>
  <path d="M20.813,11.147l0.506,1.208c0.189,0.506,0.634,1.018,1.646,1.018c1.08,0,1.524-0.573,1.524-1.268 c0-2.159-4.25-1.523-4.25-4.444c0-1.646,1.329-2.415,3.043-2.415c0.762,0,1.906,0.128,2.474,0.384 c-0.128,0.634-0.195,1.458-0.195,2.091l-0.629,0.061l-0.445-1.268c-0.128-0.311-0.64-0.568-1.268-0.568 c-0.762,0-1.524,0.317-1.524,1.141c0,1.963,4.379,1.523,4.379,4.444c0,1.646-1.458,2.539-3.236,2.539c-1.329,0-2.664-0.512-2.664-0.512c0.128-0.756,0.067-1.579,0-2.412H20.813z" fill="#f45800"/>
  <path d="M25.77,17.193c0.189-0.695,0.317-1.579,0.445-2.412l0.695-0.061l0.256,1.329c0.061,0.317,0.249,0.573,0.756,0.573 c0.823,0,1.906-0.506,2.918-2.281c-0.451-1.08-1.779-4.561-2.986-7.237c-0.317-0.702-0.378-0.762-0.817-0.891l-0.323-0.128v-0.64 l1.908,0.067l2.341-0.128V6.055l-0.573,0.128c-0.445,0.061-0.629,0.311-0.629,0.568c0,0.067,0,0.128,0.061,0.256 c0.128,0.384,1.141,3.228,1.906,5.137c0.629-1.329,1.835-4.313,2.027-4.823c0.067-0.256,0.128-0.317,0.128-0.506 c0-0.323-0.189-0.512-0.629-0.634L32.72,6.055V5.413l1.779,0.061l1.646-0.061V6.055l-0.317,0.249c-0.634,0.256-0.702,0.317-0.95,0.829l-2.787,6.528 c-1.65,3.742-3.367,4.058-4.561,4.058C26.735,17.821,26.064,17.599,25.77,17.193z" fill="#f45800"/>
</svg>
